<svg xmlns="http://www.w3.org/2000/svg" viewBox="0 0 220.05 79.02"><defs><style>.cls-1{fill:none;stroke:#231f20;stroke-miterlimit:10;stroke-width:2.02px;}.cls-2{fill:#231f20;}</style></defs><title>Asset 5</title><g id="Layer_2" data-name="Layer 2"><g id="Layer_1-2" data-name="Layer 1"><line class="cls-1" x1="0.71" y1="76.96" x2="75.19" y2="2.48"/><line class="cls-1" x1="0.71" y1="2.48" x2="75.19" y2="76.96"/><path class="cls-2" d="M31.93,8.19V18.42H29.1V8.19H25.51V5.74h10V8.19Z"/><path class="cls-2" d="M45.47,5.74h2.83V18.42H45.47v-5h-5v5H37.6V5.74h2.83V11h5Z"/><path class="cls-2" d="M11.38,42.45a4.18,4.18,0,0,0,3.41-1.65l1.82,1.87a6.61,6.61,0,0,1-5.09,2.43,6.63,6.63,0,0,1-4.83-1.85,6.26,6.26,0,0,1-1.9-4.67,6.32,6.32,0,0,1,1.93-4.71A6.51,6.51,0,0,1,11.45,32a6.7,6.7,0,0,1,5.23,2.38l-1.76,2a4.13,4.13,0,0,0-3.34-1.67,3.89,3.89,0,0,0-2.73,1,3.63,3.63,0,0,0-1.13,2.81,3.84,3.84,0,0,0,1.07,2.84A3.53,3.53,0,0,0,11.38,42.45Z"/><path class="cls-2" d="M34.78,61.05a1.1,1.1,0,0,0-.41.89,1,1,0,0,0,.5.88,9.15,9.15,0,0,0,2.31.77A6.5,6.5,0,0,1,40,64.93a3.3,3.3,0,0,1,1,2.6,3.42,3.42,0,0,1-1.28,2.77,5.1,5.1,0,0,1-3.37,1.06,7.79,7.79,0,0,1-5.43-2.23l1.69-2.07a6,6,0,0,0,3.79,1.8,2,2,0,0,0,1.23-.34,1.08,1.08,0,0,0,.44-.91,1.06,1.06,0,0,0-.47-.91A6.17,6.17,0,0,0,35.71,66a8.13,8.13,0,0,1-3.24-1.37,3.24,3.24,0,0,1-1-2.65,3.28,3.28,0,0,1,1.3-2.79,5.22,5.22,0,0,1,3.24-1,7.78,7.78,0,0,1,2.54.44,6.8,6.8,0,0,1,2.21,1.23L39.31,62a5.59,5.59,0,0,0-3.41-1.25A1.71,1.71,0,0,0,34.78,61.05Z"/><path class="cls-2" d="M61.45,34.8a1.1,1.1,0,0,0-.41.89,1,1,0,0,0,.5.88,9.15,9.15,0,0,0,2.31.77,6.5,6.5,0,0,1,2.8,1.33,3.3,3.3,0,0,1,1,2.6A3.42,3.42,0,0,1,66.36,44,5.1,5.1,0,0,1,63,45.1a7.79,7.79,0,0,1-5.43-2.23l1.69-2.07a6,6,0,0,0,3.79,1.8,2,2,0,0,0,1.23-.34,1.08,1.08,0,0,0,.44-.91,1.06,1.06,0,0,0-.47-.91,6.17,6.17,0,0,0-1.87-.68,8.13,8.13,0,0,1-3.24-1.37,3.24,3.24,0,0,1-1-2.65A3.28,3.28,0,0,1,59.41,33a5.22,5.22,0,0,1,3.24-1,7.78,7.78,0,0,1,2.54.44,6.8,6.8,0,0,1,2.21,1.23L66,35.71a5.59,5.59,0,0,0-3.41-1.25A1.71,1.71,0,0,0,61.45,34.8Z"/><path class="cls-2" d="M103.84,15a5.57,5.57,0,0,0,4.55-2.2l2.42,2.49A9.13,9.13,0,0,1,97.58,16a8.34,8.34,0,0,1-2.53-6.23,8.42,8.42,0,0,1,2.58-6.28A8.68,8.68,0,0,1,103.94,1a8.94,8.94,0,0,1,7,3.17l-2.35,2.66a5.5,5.5,0,0,0-4.45-2.23A5.19,5.19,0,0,0,100.46,6a4.85,4.85,0,0,0-1.51,3.75,5.12,5.12,0,0,0,1.43,3.79A4.71,4.71,0,0,0,103.84,15Z"/><path class="cls-2" d="M124.34,18.32h-3.41V16.75a4.28,4.28,0,0,1-3.47,1.77,5.17,5.17,0,0,1-3.47-1.2,4,4,0,0,1-1.4-3.2,3.38,3.38,0,0,1,1.45-3,6.94,6.94,0,0,1,4-1h2.71v-.07q0-2.08-2.2-2.08a6,6,0,0,0-2,.38,6.48,6.48,0,0,0-1.78.93l-1.62-2.35A9.71,9.71,0,0,1,119,5.08a6.06,6.06,0,0,1,3.87,1.19,4.49,4.49,0,0,1,1.5,3.75Zm-3.65-5v-.63h-2.28q-2.18,0-2.18,1.36a1.25,1.25,0,0,0,.52,1.08,2.52,2.52,0,0,0,1.49.38,2.64,2.64,0,0,0,1.71-.59A1.93,1.93,0,0,0,120.68,13.36Z"/><path class="cls-2" d="M137.45,14.27A3.79,3.79,0,0,1,136,17.35a5.48,5.48,0,0,1-3.59,1.16,9.59,9.59,0,0,1-3-.52,8.92,8.92,0,0,1-2.83-1.54l1.6-2.28a7,7,0,0,0,4.33,1.57,2,2,0,0,0,1.11-.28.85.85,0,0,0,.41-.74,1.07,1.07,0,0,0-.57-.85,6.48,6.48,0,0,0-1.65-.73q-1.08-.34-1.65-.58a9.27,9.27,0,0,1-1.29-.7,3,3,0,0,1-1.48-2.72,3.57,3.57,0,0,1,1.45-2.94,5.9,5.9,0,0,1,3.75-1.14,8.19,8.19,0,0,1,4.6,1.55l-1.36,2.42a5.94,5.94,0,0,0-3.38-1.16q-1.68,0-1.68.92a.89.89,0,0,0,.53.8,10.7,10.7,0,0,0,1.77.68q1.23.39,1.75.59a9,9,0,0,1,1.25.64A3,3,0,0,1,137.45,14.27Z"/><path class="cls-2" d="M146.48,15.29a4.16,4.16,0,0,0,3.27-1.81l2.15,2.42a7.49,7.49,0,0,1-5.45,2.61,7.06,7.06,0,0,1-4.95-1.85,6.25,6.25,0,0,1-2-4.84,6.3,6.3,0,0,1,2-4.86,6.94,6.94,0,0,1,4.85-1.88,7.55,7.55,0,0,1,2.84.58,7.19,7.19,0,0,1,2.53,1.72l-1.89,2.47a4.5,4.5,0,0,0-3.34-1.57,3.54,3.54,0,0,0-2.46.93,3.32,3.32,0,0,0-1,2.59,3.27,3.27,0,0,0,1,2.58A3.49,3.49,0,0,0,146.48,15.29Z"/><path class="cls-2" d="M165.38,18.32H162V16.75a4.28,4.28,0,0,1-3.47,1.77,5.17,5.17,0,0,1-3.47-1.2,4,4,0,0,1-1.4-3.2,3.38,3.38,0,0,1,1.45-3,6.94,6.94,0,0,1,4-1h2.71v-.07q0-2.08-2.2-2.08a6,6,0,0,0-2,.38,6.48,6.48,0,0,0-1.78.93l-1.62-2.35A9.71,9.71,0,0,1,160,5.08a6.06,6.06,0,0,1,3.87,1.19,4.49,4.49,0,0,1,1.5,3.75Zm-3.65-5v-.63h-2.28q-2.18,0-2.18,1.36a1.25,1.25,0,0,0,.52,1.08,2.52,2.52,0,0,0,1.49.38,2.64,2.64,0,0,0,1.71-.59A1.93,1.93,0,0,0,161.73,13.36Z"/><path class="cls-2" d="M173.91,18.51a5.5,5.5,0,0,1-4.13-2A6.89,6.89,0,0,1,168,11.69a6.61,6.61,0,0,1,1.77-4.76,5.55,5.55,0,0,1,4.14-1.85,5,5,0,0,1,3.87,1.67V.36h3.63v18h-3.63V16.6A4.71,4.71,0,0,1,173.91,18.51Zm-2.29-6.68a3.61,3.61,0,0,0,.94,2.58,2.93,2.93,0,0,0,2.2,1,2.75,2.75,0,0,0,2.14-1,3.78,3.78,0,0,0,.88-2.59,4,4,0,0,0-.88-2.64,2.72,2.72,0,0,0-2.17-1.05,2.82,2.82,0,0,0-2.2,1.06A3.89,3.89,0,0,0,171.63,11.83Z"/><path class="cls-2" d="M185.12,3.64a2.06,2.06,0,0,1-.62-1.51,2.06,2.06,0,0,1,.62-1.51,2.16,2.16,0,0,1,3,0,2.06,2.06,0,0,1,.62,1.51,2.06,2.06,0,0,1-.62,1.51,2.16,2.16,0,0,1-3,0Zm3.33,14.68h-3.63V5.3h3.63Z"/><path class="cls-2" d="M195.51,11.06v7.26h-3.63V5.3h3.63V6.75a5.08,5.08,0,0,1,3.7-1.67,4.59,4.59,0,0,1,3.45,1.45,5.36,5.36,0,0,1,1.39,3.87v7.91h-3.63V11q0-3-2.2-3a2.64,2.64,0,0,0-1.9.79A3.07,3.07,0,0,0,195.51,11.06Z"/><path class="cls-2" d="M217,16.12A5.51,5.51,0,0,1,212.71,18a5.9,5.9,0,0,1-4.31-1.73,6.2,6.2,0,0,1-1.75-4.62,6.52,6.52,0,0,1,1.8-4.74,5.61,5.61,0,0,1,4.13-1.85A4.72,4.72,0,0,1,216.42,7V5.28h3.63V16.63a7.52,7.52,0,0,1-.6,3.1,5.36,5.36,0,0,1-1.62,2.13,7.39,7.39,0,0,1-4.74,1.6,9.93,9.93,0,0,1-3-.47,8.47,8.47,0,0,1-2.65-1.34l1.4-2.73a6.18,6.18,0,0,0,3.79,1.36,4.71,4.71,0,0,0,3.16-1A3.92,3.92,0,0,0,217,16.12Zm-.51-4.59a3.37,3.37,0,0,0-.87-2.46,2.89,2.89,0,0,0-2.15-.9,3.09,3.09,0,0,0-2.21.9,3.23,3.23,0,0,0-.93,2.44,3.49,3.49,0,0,0,.91,2.5,2.94,2.94,0,0,0,2.21,1A2.84,2.84,0,0,0,215.6,14,3.55,3.55,0,0,0,216.47,11.53Z"/><path class="cls-2" d="M100,35a1.46,1.46,0,0,0-.54,1.19,1.34,1.34,0,0,0,.67,1.17,12.19,12.19,0,0,0,3.07,1A8.66,8.66,0,0,1,107,40.2a4.39,4.39,0,0,1,1.33,3.46,4.57,4.57,0,0,1-1.71,3.69,6.8,6.8,0,0,1-4.49,1.42,10.39,10.39,0,0,1-7.24-3L97.11,43q2.73,2.4,5.06,2.4A2.65,2.65,0,0,0,103.8,45a1.44,1.44,0,0,0,.59-1.21,1.41,1.41,0,0,0-.63-1.21,8.2,8.2,0,0,0-2.49-.91A10.84,10.84,0,0,1,97,39.82a4.31,4.31,0,0,1-1.37-3.53,4.38,4.38,0,0,1,1.73-3.71,7,7,0,0,1,4.32-1.31,10.41,10.41,0,0,1,3.39.58,9.09,9.09,0,0,1,3,1.65l-1.91,2.76a7.45,7.45,0,0,0-4.55-1.67A2.28,2.28,0,0,0,100,35Z"/><path class="cls-2" d="M115.14,38.17V44a1.68,1.68,0,0,0,.39,1.17,1.21,1.21,0,0,0,.92.42,2.1,2.1,0,0,0,1.72-.92l1.36,2.54A5.24,5.24,0,0,1,116,48.77a4.33,4.33,0,0,1-4.47-4.6v-6H110V35.55h1.52v-3.9h3.66v3.9h3.15v2.61Z"/><path class="cls-2" d="M123.71,53.7a5.28,5.28,0,0,1-3.61-1.55l1.65-2.69a2.72,2.72,0,0,0,1.89.9,1.06,1.06,0,0,0,.87-.5,1.75,1.75,0,0,0,.36-1.05q0-.56-5-13.26h3.87l3.17,8.11L130,35.55h3.87l-6,15.34A4.32,4.32,0,0,1,126.21,53,4.47,4.47,0,0,1,123.71,53.7Z"/><path class="cls-2" d="M139.37,48.57h-3.63v-18h3.63Z"/><path class="cls-2" d="M154.08,46.68a7.28,7.28,0,0,1-5.17,2.08,6.85,6.85,0,0,1-4.9-1.83,6.42,6.42,0,0,1-1.94-4.9,6.32,6.32,0,0,1,2-4.89,6.65,6.65,0,0,1,4.66-1.82A6.74,6.74,0,0,1,153.27,37a5.58,5.58,0,0,1,1.88,4.45v1.94h-9.49a2.59,2.59,0,0,0,1.11,1.74,3.56,3.56,0,0,0,2.13.68A4.17,4.17,0,0,0,152,44.48ZM150.59,39a2.75,2.75,0,0,0-1.83-.63,3.27,3.27,0,0,0-2,.65,2.5,2.5,0,0,0-1,1.77h5.71A2.58,2.58,0,0,0,150.59,39Z"/><path class="cls-2" d="M100,65.28a1.46,1.46,0,0,0-.54,1.19,1.34,1.34,0,0,0,.67,1.17,12.19,12.19,0,0,0,3.07,1A8.66,8.66,0,0,1,107,70.45a4.39,4.39,0,0,1,1.33,3.46,4.57,4.57,0,0,1-1.71,3.69A6.8,6.8,0,0,1,102.1,79a10.39,10.39,0,0,1-7.24-3l2.25-2.76q2.73,2.4,5.06,2.4a2.65,2.65,0,0,0,1.63-.45,1.44,1.44,0,0,0,.59-1.21,1.41,1.41,0,0,0-.63-1.21,8.2,8.2,0,0,0-2.49-.91A10.84,10.84,0,0,1,97,70.08a4.31,4.31,0,0,1-1.37-3.53,4.38,4.38,0,0,1,1.73-3.71,7,7,0,0,1,4.32-1.31,10.41,10.41,0,0,1,3.39.58,9.09,9.09,0,0,1,3,1.65l-1.91,2.76a7.45,7.45,0,0,0-4.55-1.67A2.28,2.28,0,0,0,100,65.28Z"/><path class="cls-2" d="M114.78,71.81v7h-3.63v-18h3.63v6.39a5.07,5.07,0,0,1,3.69-1.67A4.61,4.61,0,0,1,121.92,67a5.34,5.34,0,0,1,1.4,3.87v7.91h-3.63V71.71q0-3-2.2-3a2.64,2.64,0,0,0-1.9.79A3.08,3.08,0,0,0,114.78,71.81Z"/><path class="cls-2" d="M137.89,76.94A7.28,7.28,0,0,1,132.72,79a6.85,6.85,0,0,1-4.9-1.83,6.42,6.42,0,0,1-1.94-4.9,6.32,6.32,0,0,1,2-4.89,6.65,6.65,0,0,1,4.66-1.82,6.74,6.74,0,0,1,4.56,1.62A5.58,5.58,0,0,1,139,71.66V73.6h-9.49a2.59,2.59,0,0,0,1.11,1.74,3.56,3.56,0,0,0,2.13.68,4.17,4.17,0,0,0,3.15-1.28Zm-3.49-7.72a2.75,2.75,0,0,0-1.83-.63,3.27,3.27,0,0,0-2,.65,2.5,2.5,0,0,0-1,1.77h5.71A2.58,2.58,0,0,0,134.4,69.22Z"/><path class="cls-2" d="M152.85,76.94A7.28,7.28,0,0,1,147.68,79a6.85,6.85,0,0,1-4.9-1.83,6.42,6.42,0,0,1-1.94-4.9,6.32,6.32,0,0,1,2-4.89,6.65,6.65,0,0,1,4.66-1.82A6.74,6.74,0,0,1,152,67.21a5.58,5.58,0,0,1,1.88,4.45V73.6h-9.49a2.59,2.59,0,0,0,1.11,1.74,3.56,3.56,0,0,0,2.13.68,4.17,4.17,0,0,0,3.15-1.28Zm-3.49-7.72a2.75,2.75,0,0,0-1.83-.63,3.27,3.27,0,0,0-2,.65,2.5,2.5,0,0,0-1,1.77h5.71A2.58,2.58,0,0,0,149.36,69.22Z"/><path class="cls-2" d="M160.71,68.42v5.83a1.68,1.68,0,0,0,.39,1.17,1.21,1.21,0,0,0,.92.42,2.1,2.1,0,0,0,1.72-.92l1.36,2.54A5.24,5.24,0,0,1,161.52,79a4.33,4.33,0,0,1-4.47-4.6v-6h-1.52V65.8h1.52v-3.9h3.66v3.9h3.15v2.61Z"/><path class="cls-2" d="M176.83,74.77a3.79,3.79,0,0,1-1.42,3.09A5.48,5.48,0,0,1,171.82,79a9.59,9.59,0,0,1-3-.52A8.92,8.92,0,0,1,166,77l1.6-2.28a7,7,0,0,0,4.33,1.57A2,2,0,0,0,173,76a.85.85,0,0,0,.41-.74,1.07,1.07,0,0,0-.57-.85,6.48,6.48,0,0,0-1.65-.73q-1.08-.34-1.65-.58a9.27,9.27,0,0,1-1.29-.7,3,3,0,0,1-1.48-2.72,3.57,3.57,0,0,1,1.45-2.94A5.9,5.9,0,0,1,172,65.59a8.19,8.19,0,0,1,4.6,1.55l-1.36,2.42a5.94,5.94,0,0,0-3.38-1.16q-1.68,0-1.68.92a.89.89,0,0,0,.53.8,10.7,10.7,0,0,0,1.77.68q1.23.39,1.75.59a9,9,0,0,1,1.25.64A3,3,0,0,1,176.83,74.77Z"/></g></g></svg>