<svg id="Layer_1" data-name="Layer 1" xmlns="http://www.w3.org/2000/svg" viewBox="0 0 282.76 165.82"><defs><style>.cls-1{font-size:23.94px;}.cls-1,.cls-2,.cls-3{fill:#f5867b;font-family:Pompiere-Regular, Pompiere ;}.cls-2{font-size:13.06px;}.cls-3{font-size:17.41px;}</style></defs><title>informationRev</title><path d="M151.63,163.78c8.26-.65,18.35-3.67,23-11.36,1.24-2-4,2.39-1.81,1.23,1-.56,2-1.31,3-1.94s2.23-1.22,3.19-1.95c2.22-1.68-4,1-1.22.56,6.18-1,12.22-4.16,17.85-6.65,1.92-.85,3.88-1.62,5.77-2.54-1,.49-4.89,1.85-1.7.85,1.38-.43,2.71-1,4.08-1.46,2.11-.7,4.65-.94,6.62-2q2.1-.61-1,0-4.32.6,1.55-.2a57.13,57.13,0,0,0,5.79-1.06,114.7,114.7,0,0,0,14.22-3.94,71.08,71.08,0,0,1,13.33-3.1l4-.66c.87-.14,4.59-.88.47-.09-3.88.75-.67.25.37.24s2.33,0,3.49,0c13.08,0,25.61-11.48,25-25s-11-25-25-25a119.67,119.67,0,0,0-31.6,4.16c-4.94,1.43-9.48,3.44-14.56,4.5a24.46,24.46,0,0,0-3.05.68q-2.09.47.9,0,4.25-.46-1.6.27A65.54,65.54,0,0,0,193,91.57,140.88,140.88,0,0,0,176.22,98c-2.17.94-4.36,1.87-6.51,2.86-2.86,1.33,4.55-1.33,1.37-.63-1.08.24-2.16.68-3.24,1a65.78,65.78,0,0,0-18,7.88,66.8,66.8,0,0,0-9.52,7,25.65,25.65,0,0,0-2,2c-1.93,2.24-2.41,1.25,1.95-1l12.62-3.41-1.28.1c-13,1-25.64,10.76-25,25,.57,12.66,11,26.1,25,25Z"/><path d="M174.14,69.76A69.92,69.92,0,0,0,146.7,91.64q-.91,1.18-1.78,2.39,3.64-4.49,1.07-1.48c-1.56,1.27-3.21,2.61-4.67,4-2.24,2.13-5.87,5.73-6.83,8.9q3.69-4.68,1.3-2-6.85,9.09-1.84,2.13c-9.48,9-9.79,26.37,0,35.36,10.17,9.34,25.24,9.65,35.36,0a26,26,0,0,0,4.93-6q-3.92,4.85-1.42,2.1,2.53-3.1,4.85-6.36t-1,1.22c.51-.06,3.13-2.55,3.54-2.93,2.64-2.38,4.91-5.74,7-8.49L189,118q-3.71,4.66-1.22,1.69l1-1q2.71-2.45-1.31.92c.68-1.43,4.89-3.21,6.29-3.95,1.85-1,3.75-1.86,5.64-2.74,11.9-5.52,15.81-23.6,9-34.2-7.91-12.26-21.47-14.87-34.2-9Z"/><path d="M37.87,111.7c12.08-8,22.69-18.82,33.82-28.13,2.29-1.92,4.54-3.9,6.81-5.83,4.49-3.81-4.37,2.56.6-.32,1.26-.73,2.46-1.56,3.73-2.29,5.61-3.22,11.58-5.87,17.33-8.85,3.16-1.64,1.75-.9-.65.13,3-1.29,6-2.52,9-3.85,1.11-.49,5.23-1.29,1.7-.81-3.69.5.82-.18,1.83-.51,3.7-1.21,7.24-2.51,10.83-4q2.34-1,4.64-2l-2.65,1.1c.25.13,4.75-1.61,5.15-1.72,3-.82,6.12-1.38,9.15-2.14,1.71-.43,3.45-.84,5.16-1.31,5.35-1.48-5.53.16,0,0,8-.28,15.84.12,23.68-1.87,12.08-3.06,19.51-15.47,17.91-27.43C184.4,10.7,173.7-1.3,161.34.15c-17.18,2-31.52,7.85-44.82,19-10,8.39-20.12,16.84-29.43,26C78.15,54,70.27,64,61.74,73.18c-4.61,5-9,10.18-13.37,15.34C46.25,91,44.1,93.45,42,96s-4,5.09-6,7.68l-1,1.33q-4.2,5.42,5.21-4.81L77,128.4c-3.3,9.06-6.76,10.1-2.48,6.11,1.07-1,2.2-2,3.32-2.89s2.28-1.85,3.42-2.78c.82-.67,5.4-4.76.73-.69,4.88-4.25,10.77-7.64,16.13-11.24,10.85-7.28,21.05-15.65,32.12-22.56,2.51-1.56,5.07-3,7.66-4.45,1.58-.86,3.19-1.67,4.79-2.51,4.15-2.18-3.05,1-.17,0a183.49,183.49,0,0,1,18.19-5.1c13.64-2.95,27.4-5.12,41.11-7.69L182.57,28.93c-16.16,7.46-31.75,15.62-46,26.44-17.35,13.18-30.81,29-43.62,46.55-6.23,8.52-3.63,23.38,3.91,30.3,7.7,7.07,21.08,10.45,30.3,3.91,3.64-2.58,7.14-5.36,10.63-8.15.64-.51,4.35-3.89,1.58-1.29s1.31-.76,1.81-1.07c2.27-1.42,4.64-2.7,7-3.92q2-1,4-2c.71-.33,5.51-2.44,2-.93s1.8-.68,2-.77q1.68-.65,3.38-1.26,4.21-1.53,8.47-2.88c5.84-1.87,11.75-3.54,17.73-4.95s11.95-2.72,18-3.74c1.53-.26,5.71-1.66.06-.08a27.73,27.73,0,0,1,4.86-.49q4.39-.39,8.79-.59c13.06-.62,26.14-.22,39.21-.16v-50a134.39,134.39,0,0,0-13.57,1.22c-6.66.69-13.33,1-19.94,2.27a69.92,69.92,0,0,0-12.74,3.87c-3.57,1.42-7.16,2.86-10.64,4.5,6.2-2.91.06-.12-1.32.44-10.35,4.23-19.9,9.5-29.67,14.87-9.29,5.11-20.29,8.63-25.55,18.75l46.59,12.62,0-.44c.65-6-3.26-13.61-7.32-17.68C178.3,90,171.19,86.69,165,87c-14.75.66-23.49,11-25,25l0,.44c-1.12,10.36,8.53,21.87,18.35,24.11,10.45,2.38,23-1.43,28.23-11.49-3.55,6.83-10,8.6-4.1,5.22,1.31-.75,2.54-1.51,3.9-2.18,3.7-1.82,7.33-3.57,10.91-5.62,3.74-2.14,7.47-4.26,11.33-6.18,1.75-.87,3.54-1.66,5.26-2.59,4.55-2.45-4.77,1.82,1.26-.59,3.37-1.34,6.71-2.76,10-4.18,5.47-2.35-5.25,1.86.24-.07,1.83-.65,9.21-4.26,11.2-3.26q-5.23.61-1,.16l1.9-.16c2.54-.22,5.07-.39,7.6-.69a101.29,101.29,0,0,1,11.67-1c13.08,0,25.61-11.48,25-25s-11-24.93-25-25c-13.39-.07-26.8-.48-40.19.21a248.62,248.62,0,0,0-44,6.64A226.36,226.36,0,0,0,138,71.82,154.63,154.63,0,0,0,116.71,82a109.24,109.24,0,0,0-10.86,7.92c-1.14.9-2.28,1.8-3.41,2.72-3.92,3.2,4-2.86-.51.33l34.2,34.2c1.45-2,2.89-4,4.34-6,.65-.89,4-6.12.54-.83,2.31-3.52,5.61-6.69,8.55-9.7s6.16-6.06,9.29-9c1.52-1.44,3-2.88,4.63-4.24,4.89-4.19-3,1.87,1.14-1A280.65,280.65,0,0,1,207.81,72.1c11.27-5.2,14.65-20.75,10.23-31.22C213,28.86,201,24.08,188.54,26.41c-14.6,2.74-29.27,5-43.76,8.28A128.81,128.81,0,0,0,102,53.09C90.33,60.88,79.11,69.5,67.46,77.4c-7.43,5-14.56,10.43-21.53,16.09-7.67,6.22-13.61,12-17.13,21.62-3.39,9.3,1.65,20.63,9,26.28,7.77,6,19.15,7.2,27.77,2,5.26-3.2,8.08-6.86,11.73-11.79.23-.31,3.36-4.78,1.06-1.45s1-1.1,1.6-1.76c4.21-5,8.4-9.94,12.68-14.84,8.21-9.38,16.61-18.67,25-27.92,8.09-9,17.49-16.78,26.68-24.59,2.31-2,4.75-3.83,6.94-5.91,2.35-2.23-4.34,2.7-.46.3,1.18-.73,2.32-1.52,3.53-2.22.34-.2,3.36-2.2,3.71-1.94-.47-.34-5.51,2-.52.33,1.32-.45,2.66-.84,4-1.18,1.72-.42,7-1.07-.12-.23L154.7,1c-5.06,1.28,5.31.47-.12-.06A47.63,47.63,0,0,0,149.35.9a83.08,83.08,0,0,0-8.34.57,164.15,164.15,0,0,0-24.25,4.91c-5,1.37-9.56,3.92-14.44,5.65,2.5-.88,3.65-1.4.43-.29-1.31.45-2.65.84-4,1.27a137.58,137.58,0,0,0-13.9,5.63c-4.25,1.95,3.47-.78.56-.14-3.07.68-6.13,2.47-9,3.85C63.08,28.7,51,35.6,39.73,45.29c-5,4.35-10.32,8.42-15.33,12.81Q20.65,61.38,17,64.74c-1.29,1.17-2.59,2.33-3.88,3.5-3.72,3.37,4-2.68-.46.28-10.88,7.22-16.58,22.41-9,34.2,7,10.85,22.55,16.71,34.2,9Z"/><text class="cls-1" transform="translate(40.71 96.59) rotate(-49.12)">T</text><text class="cls-1" transform="matrix(0.69, -0.73, 0.73, 0.69, 46.33, 90.09)">h</text><text class="cls-1" transform="translate(52.33 83.74) rotate(-44.4)">e</text><text class="cls-1" transform="translate(58.05 78.17) rotate(-42.71)"> </text><text class="cls-1" transform="translate(61.08 75.35) rotate(-41.15)">F</text><text class="cls-1" transform="translate(66.41 70.7) rotate(-39.31)">r</text><text class="cls-1" transform="translate(71.09 66.83) rotate(-37.3)">o</text><text class="cls-1" transform="translate(77.58 61.88) rotate(-34.91)">n</text><text class="cls-1" transform="matrix(0.84, -0.54, 0.54, 0.84, 84.71, 56.93)">t</text><text class="cls-1" transform="matrix(0.85, -0.52, 0.52, 0.85, 89.92, 53.59)"> </text><text class="cls-1" transform="translate(93.39 51.41) rotate(-29.18)">B</text><text class="cls-1" transform="translate(102.49 46.35) rotate(-26.47)">o</text><text class="cls-1" transform="matrix(0.91, -0.41, 0.41, 0.91, 109.82, 42.72)">t</text><text class="cls-1" transform="matrix(0.92, -0.38, 0.38, 0.92, 115.43, 40.17)">t</text><text class="cls-1" transform="translate(121.11 37.79) rotate(-20.48)">o</text><text class="cls-1" transform="translate(128.69 34.89) rotate(-17.48)">m</text><text class="cls-1" transform="matrix(0.97, -0.25, 0.25, 0.97, 140.61, 31.2)">s</text><text class="cls-2" transform="matrix(0.7, -0.71, 0.71, 0.7, 64.39, 96.27)">f</text><text class="cls-2" transform="translate(66.59 94.04) rotate(-44.22)">e</text><text class="cls-2" transform="translate(69.71 91) rotate(-43.02)">a</text><text class="cls-2" transform="translate(72.9 88.03) rotate(-41.94)">t</text><text class="cls-2" transform="matrix(0.75, -0.66, 0.66, 0.75, 75.43, 85.77)">.</text><text class="cls-2" transform="matrix(0.76, -0.65, 0.65, 0.76, 77.63, 83.85)"> </text><text class="cls-2" transform="matrix(0.78, -0.63, 0.63, 0.78, 79.33, 82.37)">N</text><text class="cls-2" transform="translate(84.62 78.1) rotate(-37.5)">e</text><text class="cls-2" transform="translate(88.08 75.45) rotate(-36.26)">c</text><text class="cls-2" transform="translate(91.57 72.88) rotate(-34.99)">k</text><text class="cls-2" transform="matrix(0.83, -0.56, 0.56, 0.83, 95.39, 70.22)"> </text><text class="cls-2" transform="matrix(0.84, -0.54, 0.54, 0.84, 97.27, 68.93)">D</text><text class="cls-2" transform="translate(102.48 65.59) rotate(-31.25)">e</text><text class="cls-2" transform="translate(106.19 63.33) rotate(-29.99)">e</text><text class="cls-2" transform="translate(109.95 61.16) rotate(-28.67)">p</text><text class="cls-3" transform="matrix(0.75, -0.67, 0.67, 0.75, 92.21, 105.05)">A</text><text class="cls-3" transform="translate(98.07 99.84) rotate(-40.11)">t</text><text class="cls-3" transform="matrix(0.78, -0.63, 0.63, 0.78, 101.53, 96.93)"> </text><text class="cls-3" transform="translate(103.87 94.99) rotate(-37.52)">V</text><text class="cls-3" transform="matrix(0.81, -0.58, 0.58, 0.81, 110.03, 90.28)">a</text><text class="cls-3" transform="translate(114.75 86.9) rotate(-34.14)">r</text><text class="cls-3" transform="translate(118.44 84.4) rotate(-32.7)">s</text><text class="cls-3" transform="translate(123.14 81.39) rotate(-31.43)">i</text><text class="cls-3" transform="matrix(0.86, -0.5, 0.5, 0.86, 125.87, 79.72)">t</text><text class="cls-3" transform="translate(129.74 77.44) rotate(-28.83)">y</text><text class="cls-3" transform="translate(134.76 74.7) rotate(-27.56)"> </text><text class="cls-3" transform="translate(137.44 73.28) rotate(-26.19)">T</text><text class="cls-3" transform="matrix(0.91, -0.41, 0.41, 0.91, 143.07, 70.5)">h</text><text class="cls-3" transform="matrix(0.92, -0.38, 0.38, 0.92, 148.9, 67.87)">e</text><text class="cls-3" transform="translate(154.25 65.65) rotate(-20.86)">a</text><text class="cls-3" transform="translate(159.64 63.6) rotate(-19.37)">t</text><text class="cls-3" transform="matrix(0.95, -0.31, 0.31, 0.95, 163.9, 62.09)">e</text><text class="cls-3" transform="translate(169.42 60.32) rotate(-16.36)">r</text><text class="cls-3" transform="translate(122.3 108.26) rotate(-36.87)"> </text><text class="cls-3" transform="translate(124.64 106.41) rotate(-34.86)">M</text><text class="cls-3" transform="translate(133.81 100.11) rotate(-32.81)">i</text><text class="cls-3" transform="matrix(0.85, -0.52, 0.52, 0.85, 136.46, 98.37)">n</text><text class="cls-3" transform="translate(141.86 95.07) rotate(-29.61)">n</text><text class="cls-3" transform="translate(147.36 91.95) rotate(-27.84)">e</text><text class="cls-3" transform="translate(152.49 89.24) rotate(-26.15)">a</text><text class="cls-3" transform="matrix(0.91, -0.41, 0.41, 0.91, 157.68, 86.69)">p</text><text class="cls-3" transform="translate(163.41 84.09) rotate(-22.59)">o</text><text class="cls-3" transform="translate(168.94 81.81) rotate(-21.23)">l</text><text class="cls-3" transform="translate(172.06 80.6) rotate(-20.43)">i</text><text class="cls-3" transform="translate(175.04 79.48) rotate(-19)">s</text><text class="cls-3" transform="translate(180.33 77.67) rotate(-17.62)">,</text><text class="cls-3" transform="matrix(0.96, -0.29, 0.29, 0.96, 184.02, 76.5)"> </text><text class="cls-3" transform="matrix(0.97, -0.25, 0.25, 0.97, 186.87, 75.57)">M</text><text class="cls-3" transform="matrix(0.98, -0.2, 0.2, 0.98, 197.59, 72.81)">N</text><text class="cls-3" transform="translate(161.05 110.65) rotate(-23.7)">J</text><text class="cls-3" transform="translate(167.35 107.89) rotate(-21.77)">u</text><text class="cls-3" transform="translate(173.27 105.54) rotate(-20.43)">l</text><text class="cls-3" transform="translate(176.37 104.38) rotate(-19.04)">y</text><text class="cls-3" transform="translate(181.78 102.53) rotate(-17.76)"> </text><text class="cls-3" transform="translate(184.68 101.59) rotate(-16.61)">1</text><text class="cls-3" transform="matrix(0.97, -0.25, 0.25, 0.97, 189.24, 100.19)">0</text><text class="cls-3" transform="translate(197.56 98.05) rotate(-12.76)">t</text><text class="cls-3" transform="translate(201.94 97.04) rotate(-11.18)">h</text><text class="cls-3" transform="matrix(0.99, -0.17, 0.17, 0.99, 208.24, 95.81)">,</text><text class="cls-3" transform="matrix(0.99, -0.15, 0.15, 0.99, 212.03, 95.17)"> </text><text class="cls-3" transform="translate(215.03 94.68) rotate(-7.22)">2</text><text class="cls-3" transform="matrix(1, -0.09, 0.09, 1, 222.2, 93.75)">0</text><text class="cls-3" transform="matrix(1, -0.05, 0.05, 1, 230.78, 93.04)">1</text><text class="cls-3" transform="translate(235.57 92.75) rotate(-1.16)">6</text><text class="cls-3" transform="translate(152.39 141.64) rotate(-28.16)">D</text><text class="cls-3" transform="translate(159.63 137.79) rotate(-26.12)">o</text><text class="cls-3" transform="translate(165 135.15) rotate(-24.39)">o</text><text class="cls-3" transform="translate(170.47 132.68) rotate(-22.87)">r</text><text class="cls-3" transform="matrix(0.93, -0.36, 0.36, 0.93, 174.55, 130.95)">s</text><text class="cls-3" transform="translate(179.75 128.93) rotate(-20.15)"> </text><text class="cls-3" transform="translate(182.56 127.85) rotate(-18.44)">O</text><text class="cls-3" transform="translate(190.77 125.14) rotate(-16.25)">p</text><text class="cls-3" transform="matrix(0.97, -0.25, 0.25, 0.97, 196.79, 123.38)">e</text><text class="cls-3" transform="matrix(0.98, -0.22, 0.22, 0.98, 202.4, 121.93)">n</text><text class="cls-3" transform="matrix(0.98, -0.2, 0.2, 0.98, 208.59, 120.55)"> </text><text class="cls-3" transform="matrix(0.98, -0.17, 0.17, 0.98, 211.58, 119.93)">a</text><text class="cls-3" transform="matrix(0.99, -0.15, 0.15, 0.99, 217.28, 118.93)">t</text><text class="cls-3" transform="translate(221.74 118.26) rotate(-7.47)"> </text><text class="cls-3" transform="matrix(0.99, -0.11, 0.11, 0.99, 224.75, 117.84)">7</text><text class="cls-3" transform="translate(231.29 117.15) rotate(-4.21)">p</text><text class="cls-3" transform="translate(237.58 116.7) rotate(-2.75)">.</text><text class="cls-3" transform="translate(241.41 116.47) rotate(-0.89)">m</text><text class="cls-3" transform="translate(250.55 116.37) rotate(0.96)">.</text></svg>