<svg id="Layer_1" data-name="Layer 1" xmlns="http://www.w3.org/2000/svg" viewBox="0 0 315.19 121.35"><defs><style>.cls-1{font-size:30.88px;fill:#f5867b;font-family:Pompiere-Regular, Pompiere ;}</style></defs><title>tour</title><path d="M41.88,103.17c1.85-.91,3.74-1.75,5.61-2.63,2.56-1.21-1.94.84-2,.84a11.31,11.31,0,0,0,2.48-1q5.82-2.23,11.8-4a214.76,214.76,0,0,1,24.4-5.65q2.64-.46,5.3-.87l2.65-.4c4.58-.7-.84.15-1.48.18,4.08-.22,8.21-1,12.29-1.38,8.67-.87,17.33-1.8,26-2.69,17.33-1.78,34.71-2.66,52.12-3.32,18.74-.71,37.21-1.2,55.7-4.85,9-1.79,17.89-4.37,26.81-6.65,4.67-1.19,9.4-2.11,14.08-3.23,1.91-.46,3.8-1,5.69-1.56s10.05-1.9,2.23-1c7-.8,12.88-2.31,18-7.47,4.42-4.42,7.75-11.68,7.47-18C310.47,27,299.73,12.38,285.54,14c-18,2.06-35.67,7.93-53.28,12.25-4.22,1-8.47,1.94-12.75,2.7-1.68.3-3.95.25-5.52.89,4-1.64,3.54-.42,1.24-.2-1.24.12-2.47.26-3.7.37-8.86.79-17.78.85-26.66,1.15-36.65,1.21-73.6,4-109.84,9.7A205.51,205.51,0,0,0,16.15,59.14C4.14,65-.08,83,7,94c7.93,12.3,22,15.44,34.88,9.15Z"/><path d="M48.19,53.15c10.5,0,21,0,31.5,0,4.65,0,9.29-.24,13.94-.24.53,0,6.86.17,6.85.24q-5.93-.93-1.73-.2l1.65.38a31.78,31.78,0,0,1,3.25,1q3.9,1.53-1.17-.57c2,.29,4.58,2.14,6.39,3.07,4.23,2.17,8.33,4.56,12.44,6.95a248.25,248.25,0,0,0,24.64,13C165,85.18,184.75,92,204.46,98.84c2,.68,3.95,1.36,5.91,2.05,1.8.64,5.3,1.22,6.72,2.49q-5-2.17-1.15-.48,1.62.74,3.21,1.55c2.15,1.08,4.24,2.27,6.38,3.36a77.63,77.63,0,0,0,35.06,9c13.34.29,26.1-11.93,25.49-25.49-.63-14.06-11.2-25.19-25.49-25.49q-1.66,0-3.31-.11-4.24-.36,2,.43c-1.44-.81-4.49-1.05-6.15-1.46q-3.78-1.38,1.33.66-1.63-.76-3.23-1.6c-2.14-1.09-4.23-2.28-6.38-3.36-9.44-4.76-19.45-8.16-29.4-11.64-9.41-3.29-18.85-6.52-28.2-10-4.69-1.73-9.33-3.56-14-5.4q-3.92-1.62.92.41l-3.42-1.49c-2-.88-3.93-1.77-5.87-2.71-8.29-4-16.07-8.93-24.09-13.44-9.07-5.1-19.09-10.67-29.39-12.56-10.71-2-21-1.5-31.78-1.47-10.5,0-21,0-31.5,0-13.34,0-26.11,11.73-25.49,25.49S33.9,53.15,48.19,53.15Z"/><text class="cls-1" transform="translate(57.14 64.91)">I do things wrong tour</text></svg>